<svg width="26" height="26" viewBox="0 0 26 26" fill="none" xmlns="http://www.w3.org/2000/svg">
<g style="mix-blend-mode:multiply">
<path d="M25.7293 7.96537C25.7293 8.03189 25.7293 8.09009 25.7293 8.14829C25.7293 8.23144 25.7293 8.3229 25.7376 8.40605C25.7376 8.59728 25.746 8.78852 25.7543 8.99639C25.7543 9.07122 25.7543 9.13774 25.7543 9.21257C25.7543 9.39549 25.7543 9.59504 25.7626 9.78628L23.4927 7.50806C23.8835 7.53301 24.2161 7.56626 24.4655 7.60784C24.9228 7.68267 25.3302 7.80739 25.721 7.97368L25.7293 7.96537ZM20.5243 7.38334C20.5243 7.38334 20.4745 7.4166 20.4495 7.43323C20.4246 7.44154 20.3996 7.44986 20.3747 7.45817C20.2001 7.52469 20.0172 7.56627 19.8176 7.56627C19.5515 7.56627 19.3187 7.4748 19.1025 7.3584C19.5848 7.3584 20.0587 7.36671 20.5243 7.37503V7.38334Z" fill="#CCCCCC"/>
</g>
<path d="M19.8435 4.48193H19.8601C20.7082 4.48193 21.3983 5.17205 21.39 6.03678C21.39 6.88487 20.6833 7.57499 19.8268 7.57499C18.9704 7.56668 18.2886 6.86824 18.297 6.02015C18.297 5.16374 18.9954 4.48193 19.8435 4.48193Z" fill="white"/>
<path d="M25.6467 6.46881C25.838 8.49759 25.9627 18.0761 25.364 20.3211C24.5658 23.2561 22.6451 24.9939 19.6768 25.4761C18.5626 25.6591 15.5694 25.7672 12.5678 25.7672C9.56617 25.7672 6.43985 25.6508 5.40883 25.3847C2.49039 24.628 0.744305 22.724 0.278683 19.764C-0.062218 17.5855 -0.0954767 7.49152 0.528123 5.29644C1.35128 2.44451 3.25534 0.76495 6.14053 0.291013C7.44593 0.074832 10.0068 0 12.5927 0C14.9956 0 17.4235 0.0665173 18.8869 0.141349C20.6579 0.232811 22.271 0.806523 23.593 2.06204C24.8485 3.25935 25.4888 4.76431 25.6467 6.4605V6.46881ZM23.169 19.3399C23.5348 17.0783 23.5348 8.80523 23.3269 6.68499C23.0941 4.4234 21.7139 2.92676 19.4689 2.57755C18.3631 2.41125 15.6858 2.33642 13.0251 2.33642C10.3644 2.33642 7.90323 2.40294 6.78075 2.52766C4.53579 2.78541 3.02252 4.17396 2.66499 6.41061C2.29915 8.78029 2.29915 17.6354 2.57353 19.4148C2.85623 21.2689 3.90388 22.5411 5.74974 23.0566C6.7475 23.3393 9.74078 23.4391 12.6759 23.4391C15.3781 23.4391 18.0305 23.3559 19.0283 23.2478C21.2982 22.9984 22.7948 21.6015 23.1523 19.3482" fill="white"/>
<path d="M12.9747 6.27736C16.6165 6.27736 19.5516 9.23738 19.5266 12.8875C19.5017 16.5293 16.5167 19.4894 12.8666 19.4894C9.21643 19.4894 6.28967 16.5293 6.31461 12.8792C6.33956 9.22907 9.32452 6.26905 12.9747 6.27736ZM12.8749 17.1529C15.2196 17.1529 17.1403 15.2655 17.1819 12.9208C17.2235 10.5511 15.3443 8.63041 12.983 8.60547H12.9414C10.5967 8.60547 8.67598 10.4929 8.6344 12.8376C8.59283 15.199 10.4719 17.128 12.8333 17.1529H12.8749Z" fill="white"/>
</svg>
