<svg width="27" height="28" viewBox="0 0 27 28" fill="none" xmlns="http://www.w3.org/2000/svg">
<path d="M26.7894 10.9169C28.0733 18.3257 23.1831 25.342 15.8234 26.634C15.0302 26.7731 14.2452 26.8385 13.4765 26.8385C11.3994 26.8385 9.39592 26.356 7.47421 25.4156C7.31066 25.3338 7.10623 25.2929 6.91815 25.2929C6.82002 25.2929 6.73006 25.3011 6.64829 25.3256C3.09109 26.217 0.727795 26.8794 0 27.0266C0.155372 26.446 0.294389 25.939 0.425229 25.432C0.883167 23.8046 1.35746 22.1855 1.78269 20.5582C1.84811 20.3129 1.82358 20.0021 1.71727 19.7731C-2.34694 11.9146 1.98713 2.40418 10.6553 0.367986C11.7265 0.114485 12.7814 0 13.8036 0C20.3292 0 25.7182 4.792 26.7894 10.9169ZM15.2673 24.4834C21.3596 23.5102 25.5628 17.8187 24.6878 11.751C23.8701 6.15764 19.1435 2.20792 13.7136 2.20792C13.0431 2.20792 12.3562 2.26516 11.6693 2.396C4.1378 3.77799 0.0735974 12.1681 3.76982 18.8246C4.17869 19.5605 4.285 20.1657 3.99879 20.9507C3.66351 21.8993 3.45907 22.8724 3.14833 23.9437C4.48126 23.6002 5.71606 23.2895 6.94268 22.946C7.05716 22.9133 7.16347 22.9051 7.2616 22.9051C7.46604 22.9051 7.65412 22.9624 7.85855 23.085C9.62489 24.1072 11.4812 24.6387 13.4519 24.6387C14.0489 24.6387 14.6622 24.5897 15.2755 24.4915" fill="white"/>
<path d="M9.05234 7.22119C9.30584 7.22119 9.5757 7.27026 9.8292 7.31114C9.98457 7.3275 10.1236 7.55647 10.2054 7.72002C10.5733 8.58683 10.9413 9.45364 11.2603 10.3368C11.4402 10.8029 11.1131 11.2527 10.4262 12.0295C10.2135 12.2749 10.1645 12.5038 10.328 12.7901C11.4156 14.6545 12.9366 15.9956 14.9565 16.7888C15.0464 16.8216 15.1282 16.8379 15.21 16.8379C15.3817 16.8379 15.5289 16.7561 15.6597 16.5926C16.5184 15.554 16.7719 15.0961 17.1153 15.0961C17.2053 15.0961 17.2952 15.1206 17.4097 15.1779C20.1083 16.4699 20.3209 16.519 20.3291 16.8297C20.4027 18.9968 18.5137 19.8472 17.2298 19.8472C17.1644 19.8472 17.099 19.8472 17.0336 19.8472C14.4168 19.7573 10.2626 17.6884 7.44137 12.7246C6.44372 10.9665 6.60727 8.96299 8.10375 7.57282C8.38996 7.31114 8.71706 7.22937 9.05234 7.22937V7.22119Z" fill="white"/>
</svg>
