<svg width="37" height="36" viewBox="0 0 37 36" fill="none" xmlns="http://www.w3.org/2000/svg">
<path id="Vector" d="M27.4655 10.9492L27.4961 10.9554L27.5272 10.9597L33.5006 11.7848L33.5006 11.7849L33.5118 11.7863C35.8885 12.0872 36.8515 15.1573 35.1198 16.8081L35.1145 16.8131L35.1094 16.8182L30.765 21.0809L30.7594 21.0865L30.7538 21.0921C29.5844 22.2765 29.0636 23.8393 29.3946 25.5452L30.3422 31.4412L30.3428 31.4449C30.7583 33.9697 28.1819 35.7635 26.101 34.6644L20.8117 31.7797L20.7983 31.7724L20.7847 31.7655C19.4146 31.0716 17.5854 31.0716 16.2153 31.7655L16.2017 31.7724L16.1883 31.7797L10.899 34.6644C8.81806 35.7635 6.24174 33.9697 6.65722 31.4449L6.65781 31.4412L7.60392 25.5544C7.94914 23.9216 7.2309 22.2511 6.29793 21.1487L6.26801 21.1133L6.23496 21.0809L1.89666 16.8241C0.121682 15.0186 1.13244 12.0845 3.48818 11.7863L3.48819 11.7864L3.49941 11.7848L9.4612 10.9613C11.0079 10.7824 12.5329 9.756 13.2288 8.19279L15.9347 2.71151L15.9512 2.678L15.9652 2.64336C16.8184 0.530994 19.8999 0.350719 21.0653 2.71151L23.7712 8.19268C24.4832 9.79393 25.8925 10.6306 27.4655 10.9492Z" fill="#C17D4E" stroke="#C17D4E" stroke-width="2"/>
</svg>
